<?xml version="1.0" encoding="UTF-8"?>
<!-- Generator: Adobe Illustrator 22.0.1, SVG Export Plug-In . SVG Version: 6.00 Build 0)  -->
<svg version="1.1" id="Layer_1" xmlns="http://www.w3.org/2000/svg" xmlns:xlink="http://www.w3.org/1999/xlink" x="0px" y="0px" viewBox="0 0 625.4 95.8" style="enable-background:new 0 0 625.4 95.8;" xml:space="preserve">
<style type="text/css">
	.st0{fill:#006548;}
	.st1{fill:#006848;}
</style>
<g>
	<g>
		<g>
			<path class="st0" d="M139,71.8c-16.9,0-23.1-10-23.1-25.4c0-13.3,5.5-25,23.3-25c4.1,0,9.5,0.8,13.2,2l-3.4,9.4     c-3.1-1.3-6.2-2.7-9.8-2.7c-8.3,0-11.7,5.2-11.7,16.3c0,11.8,3.1,16.8,11.2,16.8c4.1,0,6.9-1.6,10.7-3.1l3.4,9.4     C148.7,70.9,144.8,71.8,139,71.8"/>
			<path class="st0" d="M172.5,43c-4.4,0-7.3,1.9-7.3,10.1c0,7.4,2.7,10.5,7.3,10.5c3.9,0,7.2-2.3,7.2-10.5     C179.7,44.9,177.2,43,172.5,43 M172.5,71.4c-12.7,0-17.6-8.4-17.6-18.2c0-9.4,5-17.8,17.6-17.8c12.8,0,17.5,8,17.5,17.8     C190,62.9,185.1,71.4,172.5,71.4"/>
			<path class="st0" d="M236.6,70.3V48.8c0-5-1.5-5.8-3.5-5.8c-3.8,0-6.2,3.7-7.5,7.1v20.1h-10.1V48.8c0-5.3-1.1-5.8-4.1-5.8     c-3.2,0-5.6,5-6.5,6.7v20.6h-10.1V44.2c0-2.8-0.7-5.3-1-7.8h9.4l1.4,4.2c1-1.5,5-5.3,8.8-5.3c5.8,0,7.5,0.7,11,4.8     c1.9-3.1,5.5-4.8,10.4-4.8c8.1,0,12,4.3,12,13.3v21.6H236.6z"/>
			<path class="st0" d="M295.1,70.3V48.8c0-5-1.5-5.8-3.5-5.8c-3.8,0-6.2,3.7-7.5,7.1v20.1h-10.1V48.8c0-5.3-1.1-5.8-4.1-5.8     c-3.2,0-5.6,5-6.5,6.7v20.6h-10.1V44.2c0-2.8-0.7-5.3-1-7.8h9.4l1.4,4.2c1-1.5,5-5.3,8.8-5.3c5.8,0,7.5,0.7,11,4.8     c1.9-3.1,5.5-4.8,10.4-4.8c8.1,0,12,4.3,12,13.3v21.6H295.1z"/>
			<path class="st0" d="M326.9,43.2c-1.5,0-6,0.4-6.2,7h13C333.2,44.6,330.3,43.2,326.9,43.2 M320.7,57.7c0.9,4.5,3.8,6.1,7.3,6.1     c3,0,6.9-1.1,10.4-2.9l3.3,7.7c-4.1,1.9-9.5,2.7-14.4,2.7c-11.3,0-17.3-8.2-17.3-17.6c0-7.8,3.6-18.3,16.8-18.3     c12.9,0,17,6.8,17,22.3H320.7z"/>
			<path class="st0" d="M369.3,44.4c-1.3-1.1-2.5-1.4-4.2-1.4c-3.7,0-5.4,5.3-6.1,7.2v20.1h-10.1V44c0-3.3-0.7-5.8-1-7.5h9.4     l1.5,4.7c1.2-2,4-5.8,7.4-5.8c3,0,5.1,0.4,6.6,0.9L369.3,44.4z"/>
			<path class="st0" d="M390.5,71.3c-11.5,0-17.6-7.3-17.6-17.7c0-11,6-18.2,17.8-18.2c3,0,9.2,1.5,11.7,2.4l-3.5,8.3     c-2.5-1.3-5.8-3-8.3-3c-4.7,0-7.4,1.8-7.4,10.4c0,7.9,3.5,9.9,7.3,9.9c2.3,0,5.8-1.5,8.7-3l3.5,8.3     C400.2,70.1,393.1,71.3,390.5,71.3"/>
			<path class="st0" d="M421.2,43.2c-1.5,0-6,0.4-6.2,7h13C427.5,44.6,424.5,43.2,421.2,43.2 M414.9,57.7c0.9,4.5,3.8,6.1,7.3,6.1     c3,0,6.9-1.1,10.4-2.9l3.3,7.7c-4.1,1.9-9.5,2.7-14.4,2.7c-11.3,0-17.3-8.2-17.3-17.6c0-7.8,3.6-18.3,16.8-18.3     c12.9,0,17,6.8,17,22.3H414.9z"/>
			<path class="st0" d="M479.9,49.9h-8.8v11.7h9.6c2.3,0,4.9-1.6,4.9-5.5C485.6,51.7,483.1,49.9,479.9,49.9 M478.7,31.1h-7.6v10.3     h8.7c2.3,0,3.7-2,3.7-5.4C483.4,34.5,482.8,31.1,478.7,31.1 M481.1,70.3h-21.3V22.4h18.9c8.7,0,16.1,3.2,16.1,13.5     c0,5-3.3,8.2-7.6,9.3c5.9,0.6,9.8,4.1,9.8,10.9C497.1,67,489.4,70.3,481.1,70.3"/>
			<path class="st0" d="M522.8,55.9h-1.6c-6.7,0-9.3,1.7-9.3,5c0,2.4,3,2.6,5.2,2.6c2.1,0,4.5-2.3,5.8-3.7V55.9z M524.7,70.3     c-0.1,0-1.3-3.3-1.3-3.1c-1.9,1.5-5,4.1-8.4,4.1c-9.5,0-13.6-3.6-13.6-9.9c0-6.9,4.4-12.7,18.8-12.7h2.6v-1.1     c0-1.6,0-4.4-3.8-4.4c-4.7,0-9.5,1.4-12.8,3l-3.5-8.3c5-1.7,11.5-2.4,16.9-2.4c7.8,0,13.4,3.4,13.4,10.8v13.7     c0,2.7,1,6.7,1.5,10.4H524.7z"/>
			<path class="st0" d="M560.9,70.3v-22c0-2.4,0-5.3-4.1-5.3c-3,0-5,3.5-6.7,6.7v20.5h-10.1V43.6c0-2.8-0.6-5-1-7.2h9.4l1.5,4.1     c1.5-1.4,4.4-5.3,8.8-5.3C569,35.3,571,41.2,571,49v21.3H560.9z"/>
			<polygon class="st0" points="598.2,70.3 587.6,53.7 587.6,70.3 577.5,70.3 577.5,21.7 587.6,21.7 587.6,49.5 597.1,36.5      608,36.5 597.2,51.1 609.8,70.3    "/>
			<g>
				<polygon class="st0" points="526,87.5 526,78 522.4,87.5 520.8,87.5 517.3,78 517.3,87.5 515.6,87.5 515.6,76.2 518.4,76.2       521.7,85.1 525,76.2 527.7,76.2 527.7,87.5     "/>
				<g>
					<path class="st0" d="M533.2,80.5c-0.9,0-1.8,0.7-1.9,2.4h4C535.2,81.2,534.4,80.5,533.2,80.5 M531.2,84.1       c0.1,1.5,0.7,2.4,2.1,2.4c0.8,0,1.6-0.3,2.4-0.7l0.5,1.2c-0.9,0.4-2,0.6-3.1,0.6c-2.5,0-3.6-1.9-3.6-4.1c0-1.9,0.8-4.3,3.6-4.3       c2.8,0,3.6,1.8,3.6,4.8H531.2z"/>
					<path class="st0" d="M548.1,87.5v-5.1c0-1.2-0.3-1.9-1.5-1.9c-1,0-1.7,0.9-2,1.7v5.3h-1.6v-5.1c0-1.4-0.5-1.9-1.5-1.9       c-0.9,0-1.6,1-1.9,1.6v5.4h-1.6v-6.2c0-0.7-0.1-1.2-0.2-1.8h1.4l0.3,1.1c0.3-0.5,1.1-1.4,2.2-1.4c1.4,0,2,0.5,2.5,1.5       c0.5-0.7,1.3-1.5,2.4-1.5c1.9,0,2.8,1,2.8,3.1v5.1H548.1z"/>
					<path class="st0" d="M555,80.5c-1.1,0-1.6,1-2,1.6v3.2c0.3,0.7,1,1.2,1.7,1.2c1.3,0,2.1-0.9,2.1-3       C556.8,81.2,556,80.5,555,80.5 M555,87.7c-1,0-1.7-0.6-2-1.1l-0.3,0.9h-1.4c0.1-1,0.2-1.4,0.2-2.5v-9h1.6v4.6       c0.4-0.6,1.1-1.3,2.2-1.3c2.4,0,3.3,1.9,3.3,4.2C558.5,85.8,557.4,87.7,555,87.7"/>
					<path class="st0" d="M563.2,80.5c-0.9,0-1.8,0.7-1.9,2.4h4C565.2,81.2,564.4,80.5,563.2,80.5 M561.2,84.1       c0.1,1.5,0.7,2.4,2.1,2.4c0.8,0,1.6-0.3,2.4-0.7l0.5,1.2c-0.9,0.4-2,0.6-3.1,0.6c-2.5,0-3.6-1.9-3.6-4.1c0-1.9,0.8-4.3,3.6-4.3       c2.8,0,3.6,1.8,3.6,4.8H561.2z"/>
					<path class="st0" d="M572.5,81c-0.3-0.2-0.7-0.5-1.2-0.5c-1,0-1.3,1.4-1.6,1.9v5.1h-1.6v-6.2c0-0.8-0.1-1.4-0.2-1.8h1.4       l0.3,1.4c0.3-0.5,1-1.6,1.9-1.6c0.6,0,1,0.1,1.5,0.4L572.5,81z"/>
				</g>
				<polygon class="st0" points="580.4,77.6 580.4,81 584.9,81 584.9,82.4 580.4,82.4 580.4,87.5 578.6,87.5 578.6,76.2 585.1,76.2       585.1,77.6     "/>
				<g>
					<path class="st0" d="M590.3,77.5h-1.5v8.6h1.6c2.2,0,3.4-1,3.4-4.3C593.9,78.3,592.6,77.5,590.3,77.5 M590.3,87.5H587V76.2h3.2       c3.8,0,5.4,1.5,5.4,5.6C595.7,85.9,594,87.5,590.3,87.5"/>
				</g>
				<rect x="597.8" y="76.2" class="st0" width="1.8" height="11.3"/>
				<g>
					<path class="st0" d="M606.6,87.8c-3.6,0-5-2.5-5-6c0-3.2,1.2-5.9,5.1-5.9c1,0,2,0.2,2.9,0.4l-0.6,1.5c-0.7-0.3-1.5-0.6-2.3-0.6       c-2.5,0-3.3,1.9-3.3,4.5c0,2.8,0.8,4.6,3.2,4.6c0.9,0,1.6-0.3,2.5-0.7l0.6,1.5C608.7,87.6,607.8,87.8,606.6,87.8"/>
				</g>
			</g>
		</g>
		<g>
			<path class="st0" d="M24.5,81.7c2.5,0.2,5.2,0.3,8,0.3c-0.3-0.5-0.6-0.9-0.8-1.4c-1-1.7-1.9-3.5-2.8-5.3     c-0.9-1.8-1.7-3.7-2.5-5.7c-0.8-1.9-1.5-3.9-2.1-5.9c-0.3-1-0.6-2-0.9-3.1c-0.1-0.3-0.2-0.6-0.2-1c-0.1,0-0.2,0-0.3,0     c-3-0.1-5.9-0.2-8.9-0.5c-1.5-0.2-3-0.3-4.4-0.6c-1.5-0.2-3-0.5-4.4-0.9c-0.8-0.2-1.6-0.4-2.3-0.6c1.7,8.8,5.8,16.7,11.6,23     c0.5,0.1,1,0.3,1.6,0.4C18.6,81.1,21.5,81.5,24.5,81.7z"/>
			<path class="st0" d="M67.2,83.1c-0.7,0.2-1.5,0.4-2.2,0.6c-0.1,0.8-0.2,1.6-0.3,2.4c-0.2,1.8-0.5,3.5-0.8,5.1     c-0.3,1.2-0.5,2.3-0.9,3.4c2.7-0.7,5.3-1.5,7.8-2.6c0.6-0.5,1.2-0.9,1.7-1.4c1-0.9,2-1.9,2.9-2.9c0.9-1,1.8-2.1,2.6-3.2     c0.8-1.1,1.5-2.2,2.2-3.4c0.7-1.1,1.2-2.3,1.8-3.4c-1.5,0.7-3,1.4-4.5,2C74.3,80.9,70.8,82.1,67.2,83.1z"/>
			<path class="st0" d="M14.4,24.6c2,0.3,4.1,0.5,6.2,0.6c0.2-1.2,0.4-2.4,0.6-3.5c0.7-3.6,1.8-6.9,3-9.8c0.9-2.1,1.8-3.9,2.8-5.6     c-7.5,4.1-13.7,10-18.1,17.1c0.7,0.2,1.3,0.4,2,0.6C12.1,24.2,13.2,24.4,14.4,24.6z"/>
			<path class="st0" d="M10.1,54.3c1.4,0.1,2.8,0.2,4.2,0.3c2.6,0.1,5.1,0.1,7.7,0.1c-0.2-1.1-0.4-2.1-0.6-3.2     c-0.4-2.1-0.7-4.1-0.9-6.2c-0.5-4.1-0.7-8.2-0.5-12.2c0-1.2,0.1-2.3,0.2-3.4c-2.2-0.2-4.3-0.5-6.5-1c-2.2-0.5-4.3-1.1-6.4-2.1     c-3.9,7.5-5.8,16-5.2,25c0,0.5,0.1,1,0.1,1.5c1.2,0.3,2.5,0.6,3.7,0.8C7.3,54,8.7,54.2,10.1,54.3z"/>
			<path class="st0" d="M59.8,69.2c-0.2-2-0.4-3.9-0.7-6c-0.3-2-0.6-4-0.9-6.1c0-0.2-0.1-0.3-0.1-0.5c-0.1,0-0.1,0-0.2,0     c-2.9,0.5-5.8,0.9-8.7,1.3c-2.9,0.4-5.8,0.7-8.8,1c-2.9,0.3-5.9,0.5-8.8,0.6c-0.9,0-1.9,0.1-2.8,0.1c0.2,0.8,0.4,1.7,0.7,2.5     c0.5,1.9,1.2,3.8,1.8,5.6c0.7,1.8,1.4,3.7,2.1,5.4c0.8,1.8,1.6,3.5,2.4,5.2c0.6,1.2,1.3,2.4,1.9,3.6c0.5,0,1.1,0,1.6-0.1     c1.7-0.1,3.5-0.2,5.3-0.3c1.8-0.1,3.6-0.3,5.4-0.5c1.8-0.2,3.6-0.4,5.4-0.6c1.7-0.2,3.4-0.5,5-0.8c0-1.5-0.1-3.1-0.2-4.7     C60.2,73.1,60,71.1,59.8,69.2z"/>
			<path class="st0" d="M39.9,53.4c2.9-0.3,5.7-0.6,8.6-1c2.8-0.4,5.7-0.8,8.5-1.2l0.1,0c0-0.1,0-0.1,0-0.2     c-0.4-2.1-0.8-4.1-1.2-6.2c-0.4-2.1-0.9-4.1-1.4-6.2c-0.5-2-1-4.1-1.5-6.1c-0.4-1.6-0.8-3.1-1.3-4.6C51.4,28,51,28,50.6,28.1     c-2.4,0.4-4.9,0.7-7.3,1c-2.4,0.3-4.9,0.5-7.3,0.6c-2.5,0.1-4.9,0.3-7.4,0.3c-1.1,0-2.3,0-3.4,0c0,1.1,0,2.1,0,3.2     c0,1.9,0.1,3.8,0.3,5.7c0.1,1.9,0.4,3.9,0.6,5.8c0.3,1.9,0.6,3.9,0.9,5.9c0.3,1.3,0.5,2.7,0.8,4c1.2-0.1,2.4-0.1,3.7-0.2     C34.2,54,37.1,53.7,39.9,53.4z"/>
			<path class="st0" d="M54.5,95.9c1.8-0.1,3.5-0.3,5.2-0.6c0-0.1,0-0.2,0-0.2c0.3-1.4,0.4-2.9,0.6-4.4c0.1-1.5,0.2-3.2,0.3-4.9     c0-0.4,0-0.8,0-1.1c-1.5,0.3-3,0.5-4.5,0.7c-1.9,0.2-3.7,0.5-5.6,0.6c-1.9,0.2-3.7,0.3-5.5,0.4c-1.5,0.1-3,0.1-4.5,0.1     c0.3,0.4,0.6,0.9,0.8,1.3c1.9,2.9,3.9,5.4,5.9,7.7c0.1,0.2,0.3,0.3,0.4,0.5C49.9,96,52.2,96,54.5,95.9z"/>
			<path class="st0" d="M75.2,52c-2.8,1-5.6,1.9-8.5,2.7c-0.9,0.2-1.8,0.5-2.7,0.7c0,0.3,0.1,0.6,0.1,0.8c0.3,2.1,0.6,4.2,0.8,6.3     c0.2,2.1,0.3,4.2,0.5,6.2c0.1,2,0.1,4,0.1,6c0,1.3,0,2.6-0.1,3.9c0.2-0.1,0.5-0.1,0.7-0.2c3.4-0.9,6.8-1.8,10-3     c2.8-1,5.5-2.1,8-3.3c0.3-0.9,0.5-1.7,0.7-2.6c0.6-2.6,1-5.3,1.2-8.1c0.2-2.7,0.2-5.5,0-8.2c-0.1-1.4-0.2-2.7-0.4-4.1     c-0.1-0.5-0.2-1.1-0.2-1.6c-0.6,0.3-1.3,0.6-1.9,0.9C80.7,49.9,78,51,75.2,52z"/>
			<path class="st0" d="M65,24.7c-2.4,0.8-4.7,1.4-7.2,2c-0.2,0-0.4,0.1-0.6,0.1c0.5,1.4,0.9,2.8,1.3,4.2c0.6,2.1,1.2,4.1,1.7,6.2     c0.5,2.1,1,4.2,1.5,6.3c0.2,1.1,0.4,2.1,0.7,3.2c0.2,1.1,0.4,2.1,0.6,3.2c0,0,0,0,0,0.1c0.8-0.2,1.5-0.4,2.3-0.5     c2.8-0.7,5.5-1.4,8.2-2.3c2.7-0.8,5.4-1.7,8-2.8c1-0.4,1.9-0.8,2.9-1.2l0-0.1c-0.2-0.7-0.3-1.5-0.5-2.2c-0.4-1.5-0.8-3-1.3-4.4     c-0.5-1.5-1-2.9-1.5-4.4c-0.5-1.4-1.1-2.9-1.8-4.3c-1.1-2.5-2.4-5-3.8-7.3c-1.2,0.6-2.3,1.1-3.5,1.6C69.7,23,67.4,23.9,65,24.7z"/>
			<path class="st0" d="M35.6,24.8c2.4-0.2,4.8-0.4,7.1-0.7c2.4-0.3,4.7-0.6,7.1-0.9c0.1,0,0.3,0,0.4-0.1c-0.2-0.7-0.5-1.4-0.7-2.1     c-0.3-0.9-0.7-1.8-1-2.7c-0.3-0.9-0.7-1.8-1-2.7c-0.7-1.7-1.5-3.4-2.2-5c-1.6-3.2-3.2-6.1-5.1-8.6c-0.1-0.2-0.3-0.4-0.4-0.6     c-3.1,0.7-6,1.7-8.9,3c-0.2,0.3-0.3,0.7-0.5,1c-1.1,2.2-2.1,4.8-2.9,7.6c-0.8,2.9-1.5,6-1.9,9.4c-0.1,0.9-0.2,1.9-0.3,2.9     c1,0,2.1,0,3.1-0.1C30.8,25.1,33.2,25,35.6,24.8z"/>
			<path class="st0" d="M43.6,0.6c2,2.3,3.9,4.9,5.6,7.8c1,1.6,1.9,3.3,2.8,5.1c0.9,1.8,1.7,3.6,2.5,5.5c0.4,1,0.8,2,1.2,3     c0.4-0.1,0.7-0.2,1.1-0.2c2.3-0.5,4.6-1.1,6.9-1.7c2.3-0.6,4.5-1.4,6.7-2.2c1-0.4,1.9-0.7,2.8-1.1c-1.1-1.6-2.3-3.1-3.6-4.6     c-1-1.1-2.1-2.2-3.2-3.3c-1.1-1-2.3-2-3.5-2.9c-1.2-0.9-2.5-1.7-3.9-2.5c-1.3-0.8-2.7-1.4-4.1-2C53.4,1,52,0.5,50.5,0.1     c0,0-0.1,0-0.1,0c-0.9,0-1.8,0.1-2.7,0.1C46.3,0.3,45,0.4,43.6,0.6z"/>
			<path class="st0" d="M64.7,3.4c1.4,0.9,2.8,1.8,4.1,2.9c1.3,1,2.5,2.1,3.7,3.3c1.2,1.2,2.3,2.4,3.3,3.7c0.5,0.6,0.9,1.1,1.3,1.7     c0.9-0.5,1.8-1,2.7-1.6c1-0.6,1.9-1.3,2.6-2c0.1-0.1,0.2-0.2,0.3-0.3c-6.6-5.4-14.6-9-23.4-10.5c0.3,0.1,0.6,0.3,0.9,0.4     C61.8,1.8,63.2,2.5,64.7,3.4z"/>
			<path class="st0" d="M94.2,69.6c-1.1,1-2.2,1.9-3.5,2.8c-1,0.7-2.1,1.4-3.2,2.1c-0.6,1.5-1.2,3-2,4.5c-1.4,2.6-3,5.1-5,7.3     c6.5-4.8,11.8-11.1,15.3-18.4C95.3,68.5,94.8,69.1,94.2,69.6z"/>
			<path class="st0" d="M38.1,90c-0.9-1.2-1.9-2.4-2.8-3.7c-0.4,0-0.8,0-1.1,0c-3.5-0.1-6.9-0.5-10.1-1c-1.9-0.3-3.7-0.7-5.5-1.1     c6.7,5.7,15.1,9.7,24.2,11.2c-0.4-0.4-0.8-0.9-1.2-1.3C40.4,92.8,39.3,91.5,38.1,90z"/>
			<path class="st0" d="M92.3,21.5c-0.2-0.2-0.3-0.5-0.5-0.7c-1.9-2.7-4-5.1-6.4-7.4c-0.2,0.2-0.3,0.3-0.5,0.5     c-1.7,1.8-3.6,3.1-5.5,4.3c1.6,2.4,2.9,4.9,4.2,7.5c0.7,1.5,1.4,3,2,4.5c0.6,1.5,1.2,3.1,1.7,4.6c0.5,1.6,1,3.1,1.4,4.7     c0.1,0.5,0.2,0.9,0.3,1.4c0.1-0.1,0.3-0.1,0.4-0.2c1.2-0.6,2.5-1.3,3.6-2.1c1.2-0.7,2.3-1.5,3.3-2.4c0.8-0.6,1.5-1.3,2.1-2     C97,29.8,94.9,25.5,92.3,21.5z"/>
			<path class="st0" d="M100.2,44.5c-0.2-2.1-0.4-4.2-0.9-6.3c-0.2,0.3-0.5,0.5-0.7,0.7c-2.2,2.2-4.7,4-7.3,5.5     c-0.5,0.3-1,0.6-1.6,0.9c0,0,0,0,0,0.1c0.1,0.4,0.1,0.7,0.2,1.1c0.1,0.7,0.2,1.5,0.3,2.2c0.2,1.5,0.3,2.9,0.4,4.4     c0.1,2.9,0.1,5.9-0.2,8.8c-0.3,2.5-0.7,5-1.3,7.5c1.1-0.7,2.2-1.4,3.2-2.1c2.1-1.6,3.9-3.3,5.1-5c0.6-0.8,1-1.6,1.3-2.4     c0.2-0.9,0.4-1.8,0.6-2.7c0.2-0.8,0.3-1.5,0.4-2.3C100.3,51.6,100.5,48.1,100.2,44.5z"/>
		</g>
	</g>
	<g>
		<path class="st1" d="M614.1,32.1c-3,0-5.4-2.4-5.4-5.4c0-3,2.4-5.4,5.4-5.4c3.1,0,5.4,2.3,5.4,5.4    C619.5,29.8,617.1,32.1,614.1,32.1z M614.1,22.2c-2.5,0-4.5,2-4.5,4.5c0,2.5,2,4.5,4.5,4.5c2.5,0,4.5-2.1,4.5-4.5    C618.6,24.2,616.6,22.2,614.1,22.2z M615.4,29.9l-2.1-2.7H613v2.7h-1v-6.3h2.2c1,0,2.1,0.4,2.1,1.8c0,0.9-0.4,1.7-1.7,1.8l2.1,2.7    H615.4z M614.2,24.4H613v2h1.3c0.8,0,1-0.5,1-1.1C615.3,24.7,614.9,24.4,614.2,24.4z"/>
	</g>
</g>
</svg>